<?xml version="1.0" encoding="utf-8"?>
<!-- Generator: Adobe Illustrator 21.1.0, SVG Export Plug-In . SVG Version: 6.00 Build 0)  -->
<svg version="1.1" id="Layer_1" xmlns="http://www.w3.org/2000/svg" xmlns:xlink="http://www.w3.org/1999/xlink" x="0px" y="0px"
	 viewBox="0 0 1611.2 601.1" style="enable-background:new 0 0 1611.2 601.1;" xml:space="preserve">
<g>
	<path d="M91.8,147.7h52.9v299.5H91.8V147.7z"/>
	<path d="M429.4,242v205.2h-52.9V423c-14.8,18.5-36.9,30-66.9,30c-54.6,0-99.7-47.2-99.7-108.3s45.1-108.3,99.7-108.3
		c30,0,52.1,11.5,66.9,30V242H429.4z M376.5,344.6c0-34.5-24.2-57.9-57-57.9c-32.4,0-56.6,23.4-56.6,57.9s24.2,57.9,56.6,57.9
		C352.3,402.5,376.5,379.1,376.5,344.6z"/>
	<path d="M487.3,344.6c0-61.1,46-108.3,108.3-108.3c40.2,0,75.1,21.3,91.9,52.9l-45.5,26.7c-8.2-16.8-25.8-27.5-46.8-27.5
		c-31.6,0-55,23.4-55,56.2c0,32.4,23.4,55.8,55,55.8c21.3,0,39-10.3,47.2-27.1l46,26.3c-17.6,32-52.5,53.3-92.7,53.3
		C533.2,452.9,487.3,405.8,487.3,344.6z"/>
	<path d="M736.5,344.6c0-61.1,48-108.3,108.3-108.3c60.3,0,108.7,47.2,108.7,108.3s-48.4,108.3-108.7,108.3
		C784.5,452.9,736.5,405.8,736.5,344.6z M900.6,344.6c0-33.2-24.2-56.6-55.8-56.6c-31.2,0-55.4,23.4-55.4,56.6
		c0,33.2,24.2,56.6,55.4,56.6C876.4,401.2,900.6,377.9,900.6,344.6z"/>
	<path d="M1203,321.2v126h-52.9V327.8c0-27.9-16.8-42.3-40.6-42.3c-25.8,0-45.1,15.2-45.1,50.9v110.8h-52.9V242h52.9v23
		c12.3-18.5,33.6-28.7,61.1-28.7C1168.9,236.3,1203,266.7,1203,321.2z"/>
	<path d="M1235.1,185c0-17.6,14.8-32.8,32.4-32.8c18.1,0,32.8,15.2,32.8,32.8c0,17.6-14.8,32.4-32.8,32.4
		C1249.9,217.4,1235.1,202.7,1235.1,185z"/>
	<path d="M1318.3,344.6c0-61.1,46-108.3,108.3-108.3c40.2,0,75.1,21.3,91.9,52.9l-45.5,26.7c-8.2-16.8-25.8-27.5-46.8-27.5
		c-31.6,0-55,23.4-55,56.2c0,32.4,23.4,55.8,55,55.8c21.3,0,39-10.3,47.2-27.1l46,26.3c-17.6,32-52.5,53.3-92.7,53.3
		C1364.3,452.9,1318.3,405.8,1318.3,344.6z"/>
</g>
</svg>
