<svg xmlns="http://www.w3.org/2000/svg" width="11702" height="4768" viewBox="0 0 11702 4768">
  <g fill="none" fill-rule="evenodd">
    <path fill="#000" fill-rule="nonzero" d="M638,4768 L572,4768 C257,4768 0,4510 0,4195 C0,3880 257,3623 572,3623 L616,3623 C887,3622 1001,3836 1001,3823 L1001,1881 C1001,1792 1019,1708 1051,1630 C1084,1550 1133,1478 1194,1417 L1194,1417 C1254,1357 1327,1308 1407,1274 C1484,1242 1569,1224 1657,1224 C1746,1224 1830,1242 1908,1274 C1988,1308 2061,1357 2121,1417 C2240,1536 2314,1700 2314,1881 L2314,3039 C2314,3092 2324,3143 2344,3189 C2364,3237 2393,3281 2430,3318 C2466,3354 2510,3384 2558,3404 C2604,3423 2655,3434 2708,3434 C2762,3434 2813,3423 2859,3404 C2907,3384 2951,3354 2987,3318 C3024,3281 3053,3237 3073,3189 C3092,3143 3103,3092 3103,3039 L3103,2559 C3103,2470 3121,2386 3153,2308 C3186,2228 3235,2156 3296,2095 L3296,2095 C3357,2034 3429,1986 3509,1952 C3586,1920 3671,1902 3760,1902 C3848,1902 3933,1920 4010,1952 C4090,1986 4163,2035 4223,2095 C4284,2155 4333,2228 4366,2308 C4398,2386 4416,2470 4416,2559 L4416,4083 C4416,4136 4427,4187 4446,4233 C4466,4282 4495,4325 4532,4362 C4604,4433 4702,4478 4811,4478 C4864,4478 4915,4467 4961,4448 C5009,4428 5053,4398 5089,4362 C5126,4325 5155,4282 5175,4233 C5195,4187 5205,4136 5205,4083 L5206,3666 C5210,3606 5242,3568 5283,3551 C5300,3543 5320,3540 5339,3540 C5357,3541 5376,3545 5393,3553 C5434,3572 5466,3612 5467,3668 L5467,3669 L5467,4083 C5467,4172 5449,4256 5417,4334 C5384,4414 5335,4486 5274,4547 C5156,4666 4991,4740 4811,4740 C4722,4740 4638,4722 4560,4690 C4480,4656 4407,4607 4347,4547 C4228,4428 4154,4264 4154,4083 L4154,2559 C4154,2505 4144,2455 4124,2408 C4104,2360 4075,2317 4038,2280 C4002,2243 3958,2214 3910,2194 C3864,2175 3813,2164 3760,2164 C3706,2164 3656,2175 3609,2194 C3561,2214 3517,2243 3481,2280 L3481,2280 C3444,2316 3415,2360 3395,2408 C3376,2455 3365,2505 3365,2559 L3365,3039 C3365,3127 3347,3212 3315,3289 C3282,3370 3233,3442 3172,3503 C3112,3563 3039,3612 2959,3645 C2882,3678 2797,3695 2708,3695 C2620,3695 2535,3678 2458,3645 C2378,3612 2305,3563 2245,3503 C2184,3442 2135,3370 2102,3289 C2070,3212 2052,3127 2052,3039 L2052,1881 C2052,1828 2041,1777 2022,1731 C2002,1682 1973,1639 1936,1602 C1900,1566 1856,1536 1808,1516 C1761,1497 1711,1486 1657,1486 C1604,1486 1553,1497 1507,1516 C1459,1536 1415,1566 1379,1602 C1342,1639 1313,1682 1293,1731 C1273,1777 1263,1828 1263,1881 C1263,2138 1262,2523 1260,3136 C1258,3531 1257,3883 1255,4038 C1249,4391 1028,4768 638,4768 Z M11027,2886 L11387,2886 L11387,2931 L11300,2931 L11451,3238 L11547,3014 C11558,2985 11564,2966 11564,2957 C11564,2939 11544,2931 11505,2931 L11478,2931 L11478,2886 L11702,2886 L11702,2931 C11671,2931 11650,2934 11640,2942 C11629,2949 11618,2967 11605,2997 L11298,3711 C11298,3723 11284,3748 11257,3787 C11230,3826 11190,3845 11136,3845 C11106,3845 11080,3836 11060,3818 C11040,3800 11030,3779 11030,3755 C11030,3731 11038,3711 11054,3693 C11071,3675 11090,3666 11113,3666 C11146,3666 11172,3685 11193,3722 C11200,3733 11206,3739 11213,3739 C11229,3739 11248,3714 11268,3665 L11352,3469 L11085,2931 L11027,2931 L11027,2886 Z M10127,2869 L10127,2992 L10130,2992 C10177,2910 10251,2869 10352,2869 C10459,2869 10518,2912 10530,3000 C10583,2912 10653,2869 10740,2869 C10798,2869 10840,2877 10868,2893 C10896,2909 10914,2929 10921,2953 C10929,2977 10932,3008 10932,3047 L10932,3422 L11015,3422 L11015,3466 L10652,3466 L10652,3422 L10736,3422 L10736,3032 C10736,2985 10731,2957 10722,2946 C10712,2936 10699,2931 10682,2931 C10653,2931 10625,2943 10596,2969 C10567,2994 10549,3021 10541,3051 C10534,3081 10530,3123 10530,3176 L10530,3422 L10614,3422 L10614,3466 L10250,3466 L10250,3422 L10334,3422 L10334,3035 C10334,2989 10329,2960 10319,2948 C10309,2936 10294,2931 10276,2931 C10242,2931 10209,2946 10177,2976 C10144,3006 10127,3064 10127,3149 L10127,3422 L10211,3422 L10211,3466 L9849,3466 L9849,3422 L9931,3422 L9931,2931 L9849,2931 L9849,2886 L9950,2886 C9986,2886 10021,2883 10054,2877 L10099,2869 L10127,2869 Z M9814,3143 L9460,3143 L9460,3236 C9460,3310 9466,3360 9480,3388 C9493,3416 9523,3430 9571,3430 C9612,3430 9651,3417 9688,3390 C9724,3363 9752,3322 9771,3265 L9814,3265 C9796,3338 9763,3393 9715,3429 C9667,3465 9609,3483 9542,3483 C9451,3483 9377,3452 9322,3389 C9268,3326 9240,3254 9240,3172 C9240,3093 9268,3023 9324,2961 C9379,2899 9449,2869 9532,2869 C9604,2869 9667,2891 9720,2936 C9773,2982 9805,3050 9814,3143 Z M9460,3096 L9615,3096 L9615,3035 C9615,2983 9607,2949 9593,2933 C9579,2918 9560,2910 9535,2910 C9512,2910 9494,2917 9480,2931 C9467,2945 9460,2980 9460,3037 L9460,3096 Z M9095,2487 L9095,3423 L9175,3423 L9175,3466 L9085,3466 C9055,3466 9028,3466 9002,3468 L8920,3475 L8899,3475 L8899,3387 L8896,3387 C8866,3451 8818,3483 8753,3483 C8690,3483 8635,3453 8588,3392 C8541,3332 8517,3257 8517,3167 C8517,3081 8541,3010 8589,2954 C8637,2897 8693,2869 8756,2869 C8810,2869 8857,2893 8899,2942 L8899,2544 L8783,2544 L8783,2500 L8886,2500 C8909,2500 8949,2498 9004,2493 C9059,2489 9090,2487 9095,2487 Z M8899,3242 L8899,3087 C8899,3027 8888,2982 8866,2953 C8844,2924 8821,2910 8798,2910 C8779,2910 8765,2920 8755,2941 C8745,2962 8740,3003 8740,3066 L8740,3283 C8740,3343 8744,3383 8751,3404 C8758,3424 8772,3435 8792,3435 C8812,3435 8835,3421 8861,3394 C8886,3368 8899,3317 8899,3242 Z M8163,3135 L8163,3006 C8163,2971 8159,2946 8150,2932 C8142,2917 8120,2910 8084,2910 C8056,2910 8033,2914 8018,2922 C8002,2931 7994,2939 7994,2948 C7994,2954 7999,2962 8011,2974 C8022,2985 8028,2999 8028,3017 C8028,3041 8018,3063 8000,3081 C7981,3099 7958,3107 7929,3107 C7904,3107 7881,3099 7862,3082 C7844,3065 7834,3044 7834,3020 C7834,2978 7860,2942 7910,2913 C7960,2883 8029,2869 8118,2869 C8186,2869 8244,2877 8290,2894 C8336,2912 8359,2951 8359,3011 L8359,3315 C8359,3367 8374,3394 8403,3394 C8411,3394 8423,3389 8437,3380 L8457,3412 C8416,3460 8369,3483 8315,3483 C8259,3483 8212,3454 8174,3396 C8111,3454 8041,3483 7965,3483 C7913,3483 7872,3470 7842,3443 C7813,3416 7798,3382 7798,3342 C7798,3214 7919,3145 8163,3135 Z M8163,3267 L8163,3174 C8098,3176 8053,3186 8028,3204 C8002,3222 7989,3252 7989,3294 C7989,3327 7997,3353 8013,3371 C8029,3390 8049,3399 8075,3399 C8103,3399 8125,3390 8140,3371 C8156,3353 8163,3318 8163,3267 Z M7703,3276 L7743,3276 C7736,3341 7707,3392 7658,3429 C7609,3465 7552,3483 7487,3483 C7400,3483 7325,3454 7262,3395 C7199,3336 7168,3265 7168,3182 C7168,3099 7200,3025 7264,2962 C7328,2900 7406,2869 7497,2869 C7561,2869 7616,2884 7661,2914 C7707,2945 7730,2985 7730,3034 C7730,3060 7721,3082 7702,3100 C7684,3119 7659,3128 7629,3128 C7602,3128 7579,3119 7559,3101 C7541,3082 7531,3060 7531,3032 C7531,2996 7544,2972 7569,2958 C7579,2952 7584,2946 7584,2938 C7584,2930 7575,2923 7559,2918 C7543,2913 7524,2910 7503,2910 C7467,2910 7439,2923 7420,2948 C7400,2974 7391,3041 7391,3152 C7391,3267 7397,3343 7410,3380 C7423,3416 7457,3435 7510,3435 C7608,3435 7672,3382 7703,3276 Z M6675,3196 L6373,3196 L6332,3295 C6316,3335 6308,3363 6308,3381 C6308,3406 6332,3419 6379,3419 L6432,3419 L6432,3466 L6121,3466 L6121,3419 L6149,3419 C6186,3419 6211,3412 6224,3400 C6237,3387 6253,3358 6272,3313 L6609,2482 L6651,2482 L7006,3419 L7106,3419 L7106,3466 L6631,3466 L6631,3419 L6759,3419 L6675,3196 Z M6393,3146 L6656,3146 L6529,2811 L6393,3146 Z M9624,2032 L9664,2032 C9657,2098 9628,2149 9579,2186 C9530,2222 9473,2240 9408,2240 C9321,2240 9246,2211 9183,2152 C9120,2093 9089,2022 9089,1939 C9089,1855 9121,1782 9185,1719 C9249,1657 9327,1625 9418,1625 C9482,1625 9536,1641 9582,1671 C9628,1702 9651,1741 9651,1790 C9651,1816 9642,1839 9623,1857 C9605,1875 9580,1885 9550,1885 C9522,1885 9500,1876 9480,1858 C9461,1839 9452,1817 9452,1789 C9452,1753 9464,1728 9490,1715 C9500,1709 9505,1702 9505,1695 C9505,1687 9496,1680 9480,1674 C9464,1669 9445,1667 9424,1667 C9388,1667 9360,1679 9341,1705 C9321,1730 9312,1798 9312,1908 C9312,2024 9318,2100 9331,2136 C9344,2173 9377,2192 9431,2192 C9529,2192 9593,2138 9624,2032 Z M8743,1379 C8743,1350 8753,1325 8773,1305 C8794,1284 8818,1274 8847,1274 C8876,1274 8901,1285 8922,1305 C8943,1326 8954,1351 8954,1379 C8954,1408 8943,1433 8922,1454 C8901,1475 8876,1485 8847,1485 C8818,1485 8794,1475 8773,1454 C8753,1433 8743,1408 8743,1379 Z M8952,1625 L8952,2178 L9008,2178 L9008,2222 L8687,2222 L8687,2178 L8756,2178 L8756,1687 L8687,1687 L8687,1643 L8778,1643 C8826,1643 8865,1640 8898,1634 C8929,1628 8948,1625 8952,1625 Z M8570,1625 L8570,1805 L8526,1805 C8499,1715 8441,1670 8352,1670 C8318,1670 8289,1678 8265,1694 C8240,1710 8228,1729 8228,1752 C8228,1772 8237,1787 8256,1798 C8275,1808 8323,1817 8401,1825 C8479,1833 8534,1853 8566,1887 C8598,1920 8614,1963 8614,2016 C8614,2081 8594,2135 8554,2177 C8513,2219 8458,2240 8389,2240 C8321,2240 8265,2220 8221,2180 L8175,2217 L8143,2217 L8143,2006 L8185,2006 C8217,2131 8285,2193 8391,2193 C8429,2193 8461,2184 8489,2166 C8517,2149 8530,2126 8530,2099 C8530,2079 8523,2064 8508,2052 C8494,2040 8459,2031 8404,2024 C8349,2018 8304,2010 8268,1999 C8233,1988 8204,1968 8181,1940 C8158,1911 8147,1873 8147,1826 C8147,1771 8166,1724 8205,1684 C8243,1645 8296,1625 8364,1625 C8412,1625 8458,1639 8502,1666 L8536,1625 L8570,1625 Z M7991,1643 L7991,2180 L8073,2180 L8073,2222 L7952,2222 C7892,2222 7853,2224 7835,2227 C7817,2230 7803,2232 7795,2233 L7795,2115 L7792,2115 C7773,2151 7744,2180 7705,2201 C7666,2222 7625,2233 7579,2233 C7536,2233 7500,2224 7469,2207 C7439,2190 7419,2170 7411,2149 C7403,2129 7400,2095 7400,2050 L7400,1687 L7317,1687 L7317,1643 L7596,1643 L7596,2027 C7596,2085 7598,2124 7603,2143 C7608,2162 7621,2171 7644,2171 C7667,2171 7694,2161 7723,2140 C7753,2119 7772,2096 7781,2069 C7790,2043 7795,2006 7795,1958 L7795,1687 L7699,1687 L7699,1643 L7991,1643 Z M6525,1257 L6706,1817 L6887,1257 L7265,1257 L7265,1304 L7143,1304 L7143,2175 L7265,2175 L7265,2222 L6780,2222 L6780,2175 L6907,2175 L6907,1356 L6629,2222 L6594,2222 L6311,1345 L6311,2077 C6311,2117 6317,2144 6327,2156 C6337,2169 6364,2175 6410,2175 L6444,2175 L6444,2222 L6121,2222 L6121,2175 L6180,2175 C6218,2175 6241,2169 6249,2157 C6257,2144 6261,2119 6261,2081 L6261,1304 L6121,1304 L6121,1257 L6525,1257 Z M11017,220 L11017,400 L11163,400 L11163,444 L11017,444 L11017,837 C11017,890 11034,916 11066,916 C11095,916 11118,890 11133,838 L11177,838 C11168,892 11149,931 11119,955 C11090,978 11042,990 10976,990 C10929,990 10894,982 10872,967 C10850,952 10836,935 10831,915 C10826,894 10823,869 10823,837 L10823,444 L10743,444 L10743,400 L10823,400 L10823,254 L11017,220 Z M10226,382 L10226,504 L10229,504 C10280,423 10351,382 10442,382 C10483,382 10519,391 10550,408 C10580,425 10600,443 10608,461 C10617,479 10621,506 10621,543 L10621,935 L10703,935 L10703,979 L10341,979 L10341,935 L10425,935 L10425,532 C10425,495 10420,472 10410,460 C10400,449 10386,444 10369,444 C10344,444 10315,459 10279,489 C10243,520 10226,573 10226,648 L10226,935 L10310,935 L10310,979 L9946,979 L9946,935 L10030,935 L10030,444 L9946,444 L9946,400 L9998,400 C10046,400 10094,397 10140,391 L10205,382 L10226,382 Z M9606,649 L9606,519 C9606,484 9602,459 9593,445 C9585,430 9562,423 9527,423 C9499,423 9476,428 9461,436 C9445,444 9437,453 9437,461 C9437,467 9442,476 9454,487 C9465,499 9471,513 9471,530 C9471,555 9461,576 9443,594 C9424,612 9401,621 9372,621 C9346,621 9324,612 9305,595 C9287,578 9277,558 9277,533 C9277,491 9302,456 9353,426 C9403,397 9472,382 9561,382 C9629,382 9687,391 9733,408 C9779,425 9802,464 9802,525 L9802,829 C9802,881 9817,907 9846,907 C9854,907 9866,903 9880,894 L9900,926 C9859,973 9812,997 9758,997 C9702,997 9655,968 9617,910 C9554,968 9484,997 9408,997 C9356,997 9315,983 9285,956 C9256,929 9241,895 9241,855 C9241,727 9362,659 9606,649 Z M9606,781 L9606,687 C9541,690 9496,700 9471,718 C9445,736 9432,766 9432,808 C9432,841 9440,866 9456,885 C9472,904 9492,913 9518,913 C9546,913 9568,904 9583,885 C9599,866 9606,832 9606,781 Z M8704,0 L8704,520 L8707,520 C8751,428 8821,382 8915,382 C8956,382 8998,395 9039,421 C9081,447 9102,497 9102,572 L9102,935 L9185,935 L9185,979 L8823,979 L8823,935 L8906,935 L8906,530 C8906,475 8887,447 8850,447 C8806,447 8771,469 8744,514 C8717,558 8704,587 8704,600 L8704,935 L8788,935 L8788,979 L8424,979 L8424,935 L8508,935 L8508,58 L8418,58 L8418,13 L8497,13 C8539,13 8584,11 8632,7 L8682,0 L8704,0 Z M8333,789 L8373,789 C8365,855 8337,906 8287,942 C8238,979 8181,997 8116,997 C8029,997 7954,967 7891,909 C7829,850 7798,779 7798,696 C7798,612 7830,539 7894,476 C7958,413 8035,382 8126,382 C8190,382 8245,397 8291,428 C8337,458 8359,498 8359,547 C8359,573 8350,595 8332,614 C8313,632 8289,642 8258,642 C8231,642 8208,632 8189,614 C8170,596 8160,573 8160,546 C8160,510 8173,485 8198,472 C8208,466 8213,459 8213,451 C8213,443 8205,437 8189,431 C8172,426 8153,423 8133,423 C8096,423 8069,436 8049,461 C8030,487 8020,555 8020,665 C8020,780 8027,856 8040,893 C8053,930 8086,948 8139,948 C8237,948 8302,895 8333,789 Z M7739,656 L7385,656 L7385,750 C7385,823 7392,874 7405,902 C7418,930 7448,944 7496,944 C7538,944 7577,930 7613,904 C7649,877 7677,835 7696,779 L7739,779 C7721,851 7688,906 7640,942 C7592,979 7535,997 7468,997 C7376,997 7303,965 7248,903 C7193,840 7165,767 7165,685 C7165,606 7193,536 7249,474 C7304,413 7374,382 7458,382 C7529,382 7592,405 7645,450 C7699,495 7730,564 7739,656 Z M7385,609 L7540,609 L7540,549 C7540,496 7533,462 7519,447 C7504,431 7485,423 7461,423 C7438,423 7419,430 7406,444 C7392,458 7385,493 7385,550 L7385,609 Z M6248,932 L6248,61 L6126,61 L6126,13 L6616,13 C6758,13 6870,58 6952,148 C7035,238 7077,351 7077,488 C7077,559 7064,626 7039,688 C7013,751 6975,807 6922,859 C6870,910 6816,943 6761,957 C6706,972 6638,979 6558,979 L6126,979 L6126,932 L6248,932 Z M6484,61 L6484,932 L6560,932 C6677,932 6748,898 6772,829 C6796,761 6808,644 6808,478 C6808,349 6801,255 6786,199 C6771,142 6749,105 6718,87 C6688,69 6650,61 6603,61 L6484,61 Z M1657,19 C1920,19 2132,232 2132,494 C2132,756 1920,969 1657,969 C1395,969 1183,756 1183,494 C1183,232 1395,19 1657,19 Z M3760,708 C4022,708 4234,920 4234,1183 C4234,1445 4022,1657 3760,1657 C3497,1657 3285,1445 3285,1183 C3285,920 3497,708 3760,708 Z M11333,4571 C11268,4571 11216,4550 11177,4509 C11139,4468 11119,4414 11119,4346 C11119,4272 11139,4214 11180,4172 C11220,4131 11275,4110 11344,4110 C11409,4110 11460,4130 11497,4171 C11534,4211 11552,4267 11552,4339 C11552,4409 11532,4465 11493,4508 C11453,4550 11400,4571 11333,4571 Z M11338,4170 C11293,4170 11257,4185 11231,4216 C11204,4247 11191,4289 11191,4343 C11191,4395 11205,4436 11231,4466 C11258,4497 11294,4512 11338,4512 C11384,4512 11419,4497 11443,4467 C11468,4438 11480,4396 11480,4341 C11480,4286 11468,4244 11443,4214 C11419,4184 11384,4170 11338,4170 Z M11081,4192 C11069,4182 11051,4178 11028,4178 C10998,4178 10973,4192 10952,4220 C10932,4249 10922,4287 10922,4336 L10922,4561 L10852,4561 L10852,4121 L10922,4121 L10922,4211 L10924,4211 C10934,4180 10949,4156 10970,4139 C10991,4121 11014,4113 11039,4113 C11057,4113 11071,4115 11081,4119 L11081,4192 Z M10403,4497 L10402,4497 L10402,4763 L10331,4763 L10331,4121 L10402,4121 L10402,4198 L10403,4198 C10438,4139 10489,4110 10556,4110 C10612,4110 10656,4130 10688,4169 C10720,4209 10736,4262 10736,4328 C10736,4401 10718,4460 10682,4505 C10647,4549 10598,4571 10535,4571 C10478,4571 10434,4546 10403,4497 Z M10402,4319 L10402,4381 C10402,4417 10413,4448 10437,4474 C10461,4499 10491,4512 10527,4512 C10570,4512 10603,4495 10627,4463 C10652,4430 10664,4385 10664,4326 C10664,4277 10653,4239 10630,4211 C10607,4183 10577,4170 10538,4170 C10497,4170 10464,4184 10439,4212 C10414,4241 10402,4276 10402,4319 Z M9954,4561 L9883,4561 L9883,4492 L9882,4492 C9851,4545 9806,4571 9746,4571 C9703,4571 9668,4559 9643,4536 C9619,4513 9606,4482 9606,4444 C9606,4362 9655,4314 9752,4300 L9883,4282 C9883,4207 9853,4170 9793,4170 C9740,4170 9692,4188 9649,4224 L9649,4152 C9693,4124 9742,4110 9799,4110 C9902,4110 9954,4165 9954,4274 L9954,4561 Z M9883,4338 L9777,4353 C9745,4357 9720,4365 9703,4377 C9687,4389 9679,4409 9679,4439 C9679,4460 9686,4478 9702,4491 C9717,4505 9737,4512 9763,4512 C9798,4512 9827,4499 9849,4475 C9872,4450 9883,4419 9883,4382 L9883,4338 Z M9288,4358 L8977,4358 C8978,4407 8992,4445 9017,4472 C9042,4498 9077,4512 9121,4512 C9170,4512 9216,4495 9258,4463 L9258,4529 C9219,4557 9168,4571 9104,4571 C9042,4571 8993,4551 8958,4511 C8922,4471 8904,4415 8904,4342 C8904,4274 8924,4218 8962,4175 C9001,4132 9050,4110 9107,4110 C9165,4110 9209,4129 9241,4166 C9272,4203 9288,4255 9288,4321 L9288,4358 Z M9216,4299 C9216,4258 9206,4226 9186,4203 C9167,4181 9140,4170 9106,4170 C9073,4170 9044,4181 9021,4205 C8998,4229 8984,4260 8978,4299 L9216,4299 Z M8877,4561 L8778,4561 L8584,4349 L8582,4349 L8582,4561 L8511,4561 L8511,3909 L8582,3909 L8582,4322 L8584,4322 L8768,4121 L8861,4121 L8657,4333 L8877,4561 Z M8331,4009 C8319,4009 8308,4004 8299,3996 C8290,3987 8286,3976 8286,3963 C8286,3950 8290,3939 8299,3930 C8308,3922 8319,3917 8331,3917 C8344,3917 8355,3922 8364,3930 C8373,3939 8378,3950 8378,3963 C8378,3976 8373,3987 8364,3995 C8355,4004 8344,4009 8331,4009 Z M8366,4561 L8295,4561 L8295,4121 L8366,4121 L8366,4561 Z M8149,4561 L8079,4561 L8079,3909 L8149,3909 L8149,4561 Z M7759,4121 L7557,4631 C7520,4722 7470,4768 7404,4768 C7386,4768 7371,4766 7359,4762 L7359,4699 C7374,4704 7388,4707 7400,4707 C7436,4707 7462,4686 7480,4643 L7515,4560 L7343,4121 L7422,4121 L7541,4459 C7542,4464 7545,4475 7550,4493 L7552,4493 C7554,4486 7557,4475 7561,4460 L7686,4121 L7759,4121 Z M7273,4561 L7202,4561 L7202,4492 L7201,4492 C7170,4545 7125,4571 7065,4571 C7021,4571 6987,4559 6962,4536 C6937,4513 6925,4482 6925,4444 C6925,4362 6974,4314 7070,4300 L7202,4282 C7202,4207 7172,4170 7112,4170 C7059,4170 7011,4188 6968,4224 L6968,4152 C7011,4124 7061,4110 7118,4110 C7221,4110 7273,4165 7273,4274 L7273,4561 Z M7202,4338 L7096,4353 C7064,4357 7039,4365 7022,4377 C7006,4389 6997,4409 6997,4439 C6997,4460 7005,4478 7020,4491 C7036,4505 7056,4512 7082,4512 C7116,4512 7145,4499 7168,4475 C7191,4450 7202,4419 7202,4382 L7202,4338 Z M6812,4561 L6741,4561 L6741,3909 L6812,3909 L6812,4561 Z M6293,4497 L6292,4497 L6292,4763 L6221,4763 L6221,4121 L6292,4121 L6292,4198 L6293,4198 C6328,4139 6379,4110 6445,4110 C6502,4110 6546,4130 6578,4169 C6610,4209 6626,4262 6626,4328 C6626,4401 6608,4460 6572,4505 C6536,4549 6487,4571 6425,4571 C6368,4571 6324,4546 6293,4497 Z M6292,4319 L6292,4381 C6292,4417 6303,4448 6327,4474 C6351,4499 6381,4512 6417,4512 C6460,4512 6493,4495 6517,4463 C6542,4430 6554,4385 6554,4326 C6554,4277 6542,4239 6520,4211 C6497,4183 6466,4170 6428,4170 C6387,4170 6354,4184 6329,4212 C6304,4241 6292,4276 6292,4319 Z"/>
    <path d="M638,4768 L572,4768 C257,4768 0,4510 0,4195 C0,3880 257,3623 572,3623 L616,3623 C887,3622 1001,3836 1001,3823 L1001,1881 C1001,1792 1019,1708 1051,1630 C1084,1550 1133,1478 1194,1417 L1194,1417 C1254,1357 1327,1308 1407,1274 C1484,1242 1569,1224 1657,1224 C1746,1224 1830,1242 1908,1274 C1988,1308 2061,1357 2121,1417 C2240,1536 2314,1700 2314,1881 L2314,3039 C2314,3092 2324,3143 2344,3189 C2364,3237 2393,3281 2430,3318 C2466,3354 2510,3384 2558,3404 C2604,3423 2655,3434 2708,3434 C2762,3434 2813,3423 2859,3404 C2907,3384 2951,3354 2987,3318 C3024,3281 3053,3237 3073,3189 C3092,3143 3103,3092 3103,3039 L3103,2559 C3103,2470 3121,2386 3153,2308 C3186,2228 3235,2156 3296,2095 L3296,2095 C3357,2034 3429,1986 3509,1952 C3586,1920 3671,1902 3760,1902 C3848,1902 3933,1920 4010,1952 C4090,1986 4163,2035 4223,2095 C4284,2155 4333,2228 4366,2308 C4398,2386 4416,2470 4416,2559 L4416,4083 C4416,4136 4427,4187 4446,4233 C4466,4282 4495,4325 4532,4362 C4604,4433 4702,4478 4811,4478 C4864,4478 4915,4467 4961,4448 C5009,4428 5053,4398 5089,4362 C5126,4325 5155,4282 5175,4233 C5195,4187 5205,4136 5205,4083 L5206,3666 C5210,3606 5242,3568 5283,3551 C5300,3543 5320,3540 5339,3540 C5357,3541 5376,3545 5393,3553 C5434,3572 5466,3612 5467,3668 L5467,3669 L5467,4083 C5467,4172 5449,4256 5417,4334 C5384,4414 5335,4486 5274,4547 C5156,4666 4991,4740 4811,4740 C4722,4740 4638,4722 4560,4690 C4480,4656 4407,4607 4347,4547 C4228,4428 4154,4264 4154,4083 L4154,2559 C4154,2505 4144,2455 4124,2408 C4104,2360 4075,2317 4038,2280 C4002,2243 3958,2214 3910,2194 C3864,2175 3813,2164 3760,2164 C3706,2164 3656,2175 3609,2194 C3561,2214 3517,2243 3481,2280 L3481,2280 C3444,2316 3415,2360 3395,2408 C3376,2455 3365,2505 3365,2559 L3365,3039 C3365,3127 3347,3212 3315,3289 C3282,3370 3233,3442 3172,3503 C3112,3563 3039,3612 2959,3645 C2882,3678 2797,3695 2708,3695 C2620,3695 2535,3678 2458,3645 C2378,3612 2305,3563 2245,3503 C2184,3442 2135,3370 2102,3289 C2070,3212 2052,3127 2052,3039 L2052,1881 C2052,1828 2041,1777 2022,1731 C2002,1682 1973,1639 1936,1602 C1900,1566 1856,1536 1808,1516 C1761,1497 1711,1486 1657,1486 C1604,1486 1553,1497 1507,1516 C1459,1536 1415,1566 1379,1602 C1342,1639 1313,1682 1293,1731 C1273,1777 1263,1828 1263,1881 C1263,2138 1262,2523 1260,3136 C1258,3531 1257,3883 1255,4038 C1249,4391 1028,4768 638,4768 Z M11027,2886 L11387,2886 L11387,2931 L11300,2931 L11451,3238 L11547,3014 C11558,2985 11564,2966 11564,2957 C11564,2939 11544,2931 11505,2931 L11478,2931 L11478,2886 L11702,2886 L11702,2931 C11671,2931 11650,2934 11640,2942 C11629,2949 11618,2967 11605,2997 L11298,3711 C11298,3723 11284,3748 11257,3787 C11230,3826 11190,3845 11136,3845 C11106,3845 11080,3836 11060,3818 C11040,3800 11030,3779 11030,3755 C11030,3731 11038,3711 11054,3693 C11071,3675 11090,3666 11113,3666 C11146,3666 11172,3685 11193,3722 C11200,3733 11206,3739 11213,3739 C11229,3739 11248,3714 11268,3665 L11352,3469 L11085,2931 L11027,2931 L11027,2886 Z M10127,2869 L10127,2992 L10130,2992 C10177,2910 10251,2869 10352,2869 C10459,2869 10518,2912 10530,3000 C10583,2912 10653,2869 10740,2869 C10798,2869 10840,2877 10868,2893 C10896,2909 10914,2929 10921,2953 C10929,2977 10932,3008 10932,3047 L10932,3422 L11015,3422 L11015,3466 L10652,3466 L10652,3422 L10736,3422 L10736,3032 C10736,2985 10731,2957 10722,2946 C10712,2936 10699,2931 10682,2931 C10653,2931 10625,2943 10596,2969 C10567,2994 10549,3021 10541,3051 C10534,3081 10530,3123 10530,3176 L10530,3422 L10614,3422 L10614,3466 L10250,3466 L10250,3422 L10334,3422 L10334,3035 C10334,2989 10329,2960 10319,2948 C10309,2936 10294,2931 10276,2931 C10242,2931 10209,2946 10177,2976 C10144,3006 10127,3064 10127,3149 L10127,3422 L10211,3422 L10211,3466 L9849,3466 L9849,3422 L9931,3422 L9931,2931 L9849,2931 L9849,2886 L9950,2886 C9986,2886 10021,2883 10054,2877 L10099,2869 L10127,2869 Z M9814,3143 L9460,3143 L9460,3236 C9460,3310 9466,3360 9480,3388 C9493,3416 9523,3430 9571,3430 C9612,3430 9651,3417 9688,3390 C9724,3363 9752,3322 9771,3265 L9814,3265 C9796,3338 9763,3393 9715,3429 C9667,3465 9609,3483 9542,3483 C9451,3483 9377,3452 9322,3389 C9268,3326 9240,3254 9240,3172 C9240,3093 9268,3023 9324,2961 C9379,2899 9449,2869 9532,2869 C9604,2869 9667,2891 9720,2936 C9773,2982 9805,3050 9814,3143 Z M9460,3096 L9615,3096 L9615,3035 C9615,2983 9607,2949 9593,2933 C9579,2918 9560,2910 9535,2910 C9512,2910 9494,2917 9480,2931 C9467,2945 9460,2980 9460,3037 L9460,3096 Z M9095,2487 L9095,3423 L9175,3423 L9175,3466 L9085,3466 C9055,3466 9028,3466 9002,3468 L8920,3475 L8899,3475 L8899,3387 L8896,3387 C8866,3451 8818,3483 8753,3483 C8690,3483 8635,3453 8588,3392 C8541,3332 8517,3257 8517,3167 C8517,3081 8541,3010 8589,2954 C8637,2897 8693,2869 8756,2869 C8810,2869 8857,2893 8899,2942 L8899,2544 L8783,2544 L8783,2500 L8886,2500 C8909,2500 8949,2498 9004,2493 C9059,2489 9090,2487 9095,2487 Z M8899,3242 L8899,3087 C8899,3027 8888,2982 8866,2953 C8844,2924 8821,2910 8798,2910 C8779,2910 8765,2920 8755,2941 C8745,2962 8740,3003 8740,3066 L8740,3283 C8740,3343 8744,3383 8751,3404 C8758,3424 8772,3435 8792,3435 C8812,3435 8835,3421 8861,3394 C8886,3368 8899,3317 8899,3242 Z M8163,3135 L8163,3006 C8163,2971 8159,2946 8150,2932 C8142,2917 8120,2910 8084,2910 C8056,2910 8033,2914 8018,2922 C8002,2931 7994,2939 7994,2948 C7994,2954 7999,2962 8011,2974 C8022,2985 8028,2999 8028,3017 C8028,3041 8018,3063 8000,3081 C7981,3099 7958,3107 7929,3107 C7904,3107 7881,3099 7862,3082 C7844,3065 7834,3044 7834,3020 C7834,2978 7860,2942 7910,2913 C7960,2883 8029,2869 8118,2869 C8186,2869 8244,2877 8290,2894 C8336,2912 8359,2951 8359,3011 L8359,3315 C8359,3367 8374,3394 8403,3394 C8411,3394 8423,3389 8437,3380 L8457,3412 C8416,3460 8369,3483 8315,3483 C8259,3483 8212,3454 8174,3396 C8111,3454 8041,3483 7965,3483 C7913,3483 7872,3470 7842,3443 C7813,3416 7798,3382 7798,3342 C7798,3214 7919,3145 8163,3135 Z M8163,3267 L8163,3174 C8098,3176 8053,3186 8028,3204 C8002,3222 7989,3252 7989,3294 C7989,3327 7997,3353 8013,3371 C8029,3390 8049,3399 8075,3399 C8103,3399 8125,3390 8140,3371 C8156,3353 8163,3318 8163,3267 Z M7703,3276 L7743,3276 C7736,3341 7707,3392 7658,3429 C7609,3465 7552,3483 7487,3483 C7400,3483 7325,3454 7262,3395 C7199,3336 7168,3265 7168,3182 C7168,3099 7200,3025 7264,2962 C7328,2900 7406,2869 7497,2869 C7561,2869 7616,2884 7661,2914 C7707,2945 7730,2985 7730,3034 C7730,3060 7721,3082 7702,3100 C7684,3119 7659,3128 7629,3128 C7602,3128 7579,3119 7559,3101 C7541,3082 7531,3060 7531,3032 C7531,2996 7544,2972 7569,2958 C7579,2952 7584,2946 7584,2938 C7584,2930 7575,2923 7559,2918 C7543,2913 7524,2910 7503,2910 C7467,2910 7439,2923 7420,2948 C7400,2974 7391,3041 7391,3152 C7391,3267 7397,3343 7410,3380 C7423,3416 7457,3435 7510,3435 C7608,3435 7672,3382 7703,3276 Z M6675,3196 L6373,3196 L6332,3295 C6316,3335 6308,3363 6308,3381 C6308,3406 6332,3419 6379,3419 L6432,3419 L6432,3466 L6121,3466 L6121,3419 L6149,3419 C6186,3419 6211,3412 6224,3400 C6237,3387 6253,3358 6272,3313 L6609,2482 L6651,2482 L7006,3419 L7106,3419 L7106,3466 L6631,3466 L6631,3419 L6759,3419 L6675,3196 Z M6393,3146 L6656,3146 L6529,2811 L6393,3146 Z M9624,2032 L9664,2032 C9657,2098 9628,2149 9579,2186 C9530,2222 9473,2240 9408,2240 C9321,2240 9246,2211 9183,2152 C9120,2093 9089,2022 9089,1939 C9089,1855 9121,1782 9185,1719 C9249,1657 9327,1625 9418,1625 C9482,1625 9536,1641 9582,1671 C9628,1702 9651,1741 9651,1790 C9651,1816 9642,1839 9623,1857 C9605,1875 9580,1885 9550,1885 C9522,1885 9500,1876 9480,1858 C9461,1839 9452,1817 9452,1789 C9452,1753 9464,1728 9490,1715 C9500,1709 9505,1702 9505,1695 C9505,1687 9496,1680 9480,1674 C9464,1669 9445,1667 9424,1667 C9388,1667 9360,1679 9341,1705 C9321,1730 9312,1798 9312,1908 C9312,2024 9318,2100 9331,2136 C9344,2173 9377,2192 9431,2192 C9529,2192 9593,2138 9624,2032 Z M8743,1379 C8743,1350 8753,1325 8773,1305 C8794,1284 8818,1274 8847,1274 C8876,1274 8901,1285 8922,1305 C8943,1326 8954,1351 8954,1379 C8954,1408 8943,1433 8922,1454 C8901,1475 8876,1485 8847,1485 C8818,1485 8794,1475 8773,1454 C8753,1433 8743,1408 8743,1379 Z M8952,1625 L8952,2178 L9008,2178 L9008,2222 L8687,2222 L8687,2178 L8756,2178 L8756,1687 L8687,1687 L8687,1643 L8778,1643 C8826,1643 8865,1640 8898,1634 C8929,1628 8948,1625 8952,1625 Z M8570,1625 L8570,1805 L8526,1805 C8499,1715 8441,1670 8352,1670 C8318,1670 8289,1678 8265,1694 C8240,1710 8228,1729 8228,1752 C8228,1772 8237,1787 8256,1798 C8275,1808 8323,1817 8401,1825 C8479,1833 8534,1853 8566,1887 C8598,1920 8614,1963 8614,2016 C8614,2081 8594,2135 8554,2177 C8513,2219 8458,2240 8389,2240 C8321,2240 8265,2220 8221,2180 L8175,2217 L8143,2217 L8143,2006 L8185,2006 C8217,2131 8285,2193 8391,2193 C8429,2193 8461,2184 8489,2166 C8517,2149 8530,2126 8530,2099 C8530,2079 8523,2064 8508,2052 C8494,2040 8459,2031 8404,2024 C8349,2018 8304,2010 8268,1999 C8233,1988 8204,1968 8181,1940 C8158,1911 8147,1873 8147,1826 C8147,1771 8166,1724 8205,1684 C8243,1645 8296,1625 8364,1625 C8412,1625 8458,1639 8502,1666 L8536,1625 L8570,1625 Z M7991,1643 L7991,2180 L8073,2180 L8073,2222 L7952,2222 C7892,2222 7853,2224 7835,2227 C7817,2230 7803,2232 7795,2233 L7795,2115 L7792,2115 C7773,2151 7744,2180 7705,2201 C7666,2222 7625,2233 7579,2233 C7536,2233 7500,2224 7469,2207 C7439,2190 7419,2170 7411,2149 C7403,2129 7400,2095 7400,2050 L7400,1687 L7317,1687 L7317,1643 L7596,1643 L7596,2027 C7596,2085 7598,2124 7603,2143 C7608,2162 7621,2171 7644,2171 C7667,2171 7694,2161 7723,2140 C7753,2119 7772,2096 7781,2069 C7790,2043 7795,2006 7795,1958 L7795,1687 L7699,1687 L7699,1643 L7991,1643 Z M6525,1257 L6706,1817 L6887,1257 L7265,1257 L7265,1304 L7143,1304 L7143,2175 L7265,2175 L7265,2222 L6780,2222 L6780,2175 L6907,2175 L6907,1356 L6629,2222 L6594,2222 L6311,1345 L6311,2077 C6311,2117 6317,2144 6327,2156 C6337,2169 6364,2175 6410,2175 L6444,2175 L6444,2222 L6121,2222 L6121,2175 L6180,2175 C6218,2175 6241,2169 6249,2157 C6257,2144 6261,2119 6261,2081 L6261,1304 L6121,1304 L6121,1257 L6525,1257 Z M11017,220 L11017,400 L11163,400 L11163,444 L11017,444 L11017,837 C11017,890 11034,916 11066,916 C11095,916 11118,890 11133,838 L11177,838 C11168,892 11149,931 11119,955 C11090,978 11042,990 10976,990 C10929,990 10894,982 10872,967 C10850,952 10836,935 10831,915 C10826,894 10823,869 10823,837 L10823,444 L10743,444 L10743,400 L10823,400 L10823,254 L11017,220 Z M10226,382 L10226,504 L10229,504 C10280,423 10351,382 10442,382 C10483,382 10519,391 10550,408 C10580,425 10600,443 10608,461 C10617,479 10621,506 10621,543 L10621,935 L10703,935 L10703,979 L10341,979 L10341,935 L10425,935 L10425,532 C10425,495 10420,472 10410,460 C10400,449 10386,444 10369,444 C10344,444 10315,459 10279,489 C10243,520 10226,573 10226,648 L10226,935 L10310,935 L10310,979 L9946,979 L9946,935 L10030,935 L10030,444 L9946,444 L9946,400 L9998,400 C10046,400 10094,397 10140,391 L10205,382 L10226,382 Z M9606,649 L9606,519 C9606,484 9602,459 9593,445 C9585,430 9562,423 9527,423 C9499,423 9476,428 9461,436 C9445,444 9437,453 9437,461 C9437,467 9442,476 9454,487 C9465,499 9471,513 9471,530 C9471,555 9461,576 9443,594 C9424,612 9401,621 9372,621 C9346,621 9324,612 9305,595 C9287,578 9277,558 9277,533 C9277,491 9302,456 9353,426 C9403,397 9472,382 9561,382 C9629,382 9687,391 9733,408 C9779,425 9802,464 9802,525 L9802,829 C9802,881 9817,907 9846,907 C9854,907 9866,903 9880,894 L9900,926 C9859,973 9812,997 9758,997 C9702,997 9655,968 9617,910 C9554,968 9484,997 9408,997 C9356,997 9315,983 9285,956 C9256,929 9241,895 9241,855 C9241,727 9362,659 9606,649 Z M9606,781 L9606,687 C9541,690 9496,700 9471,718 C9445,736 9432,766 9432,808 C9432,841 9440,866 9456,885 C9472,904 9492,913 9518,913 C9546,913 9568,904 9583,885 C9599,866 9606,832 9606,781 Z M8704,0 L8704,520 L8707,520 C8751,428 8821,382 8915,382 C8956,382 8998,395 9039,421 C9081,447 9102,497 9102,572 L9102,935 L9185,935 L9185,979 L8823,979 L8823,935 L8906,935 L8906,530 C8906,475 8887,447 8850,447 C8806,447 8771,469 8744,514 C8717,558 8704,587 8704,600 L8704,935 L8788,935 L8788,979 L8424,979 L8424,935 L8508,935 L8508,58 L8418,58 L8418,13 L8497,13 C8539,13 8584,11 8632,7 L8682,0 L8704,0 Z M8333,789 L8373,789 C8365,855 8337,906 8287,942 C8238,979 8181,997 8116,997 C8029,997 7954,967 7891,909 C7829,850 7798,779 7798,696 C7798,612 7830,539 7894,476 C7958,413 8035,382 8126,382 C8190,382 8245,397 8291,428 C8337,458 8359,498 8359,547 C8359,573 8350,595 8332,614 C8313,632 8289,642 8258,642 C8231,642 8208,632 8189,614 C8170,596 8160,573 8160,546 C8160,510 8173,485 8198,472 C8208,466 8213,459 8213,451 C8213,443 8205,437 8189,431 C8172,426 8153,423 8133,423 C8096,423 8069,436 8049,461 C8030,487 8020,555 8020,665 C8020,780 8027,856 8040,893 C8053,930 8086,948 8139,948 C8237,948 8302,895 8333,789 Z M7739,656 L7385,656 L7385,750 C7385,823 7392,874 7405,902 C7418,930 7448,944 7496,944 C7538,944 7577,930 7613,904 C7649,877 7677,835 7696,779 L7739,779 C7721,851 7688,906 7640,942 C7592,979 7535,997 7468,997 C7376,997 7303,965 7248,903 C7193,840 7165,767 7165,685 C7165,606 7193,536 7249,474 C7304,413 7374,382 7458,382 C7529,382 7592,405 7645,450 C7699,495 7730,564 7739,656 Z M7385,609 L7540,609 L7540,549 C7540,496 7533,462 7519,447 C7504,431 7485,423 7461,423 C7438,423 7419,430 7406,444 C7392,458 7385,493 7385,550 L7385,609 Z M6248,932 L6248,61 L6126,61 L6126,13 L6616,13 C6758,13 6870,58 6952,148 C7035,238 7077,351 7077,488 C7077,559 7064,626 7039,688 C7013,751 6975,807 6922,859 C6870,910 6816,943 6761,957 C6706,972 6638,979 6558,979 L6126,979 L6126,932 L6248,932 Z M6484,61 L6484,932 L6560,932 C6677,932 6748,898 6772,829 C6796,761 6808,644 6808,478 C6808,349 6801,255 6786,199 C6771,142 6749,105 6718,87 C6688,69 6650,61 6603,61 L6484,61 Z M1657,19 C1920,19 2132,232 2132,494 C2132,756 1920,969 1657,969 C1395,969 1183,756 1183,494 C1183,232 1395,19 1657,19 Z M3760,708 C4022,708 4234,920 4234,1183 C4234,1445 4022,1657 3760,1657 C3497,1657 3285,1445 3285,1183 C3285,920 3497,708 3760,708 Z M11333,4571 C11268,4571 11216,4550 11177,4509 C11139,4468 11119,4414 11119,4346 C11119,4272 11139,4214 11180,4172 C11220,4131 11275,4110 11344,4110 C11409,4110 11460,4130 11497,4171 C11534,4211 11552,4267 11552,4339 C11552,4409 11532,4465 11493,4508 C11453,4550 11400,4571 11333,4571 Z M11338,4170 C11293,4170 11257,4185 11231,4216 C11204,4247 11191,4289 11191,4343 C11191,4395 11205,4436 11231,4466 C11258,4497 11294,4512 11338,4512 C11384,4512 11419,4497 11443,4467 C11468,4438 11480,4396 11480,4341 C11480,4286 11468,4244 11443,4214 C11419,4184 11384,4170 11338,4170 Z M11081,4192 C11069,4182 11051,4178 11028,4178 C10998,4178 10973,4192 10952,4220 C10932,4249 10922,4287 10922,4336 L10922,4561 L10852,4561 L10852,4121 L10922,4121 L10922,4211 L10924,4211 C10934,4180 10949,4156 10970,4139 C10991,4121 11014,4113 11039,4113 C11057,4113 11071,4115 11081,4119 L11081,4192 Z M10403,4497 L10402,4497 L10402,4763 L10331,4763 L10331,4121 L10402,4121 L10402,4198 L10403,4198 C10438,4139 10489,4110 10556,4110 C10612,4110 10656,4130 10688,4169 C10720,4209 10736,4262 10736,4328 C10736,4401 10718,4460 10682,4505 C10647,4549 10598,4571 10535,4571 C10478,4571 10434,4546 10403,4497 Z M10402,4319 L10402,4381 C10402,4417 10413,4448 10437,4474 C10461,4499 10491,4512 10527,4512 C10570,4512 10603,4495 10627,4463 C10652,4430 10664,4385 10664,4326 C10664,4277 10653,4239 10630,4211 C10607,4183 10577,4170 10538,4170 C10497,4170 10464,4184 10439,4212 C10414,4241 10402,4276 10402,4319 Z M9954,4561 L9883,4561 L9883,4492 L9882,4492 C9851,4545 9806,4571 9746,4571 C9703,4571 9668,4559 9643,4536 C9619,4513 9606,4482 9606,4444 C9606,4362 9655,4314 9752,4300 L9883,4282 C9883,4207 9853,4170 9793,4170 C9740,4170 9692,4188 9649,4224 L9649,4152 C9693,4124 9742,4110 9799,4110 C9902,4110 9954,4165 9954,4274 L9954,4561 Z M9883,4338 L9777,4353 C9745,4357 9720,4365 9703,4377 C9687,4389 9679,4409 9679,4439 C9679,4460 9686,4478 9702,4491 C9717,4505 9737,4512 9763,4512 C9798,4512 9827,4499 9849,4475 C9872,4450 9883,4419 9883,4382 L9883,4338 Z M9288,4358 L8977,4358 C8978,4407 8992,4445 9017,4472 C9042,4498 9077,4512 9121,4512 C9170,4512 9216,4495 9258,4463 L9258,4529 C9219,4557 9168,4571 9104,4571 C9042,4571 8993,4551 8958,4511 C8922,4471 8904,4415 8904,4342 C8904,4274 8924,4218 8962,4175 C9001,4132 9050,4110 9107,4110 C9165,4110 9209,4129 9241,4166 C9272,4203 9288,4255 9288,4321 L9288,4358 Z M9216,4299 C9216,4258 9206,4226 9186,4203 C9167,4181 9140,4170 9106,4170 C9073,4170 9044,4181 9021,4205 C8998,4229 8984,4260 8978,4299 L9216,4299 Z M8877,4561 L8778,4561 L8584,4349 L8582,4349 L8582,4561 L8511,4561 L8511,3909 L8582,3909 L8582,4322 L8584,4322 L8768,4121 L8861,4121 L8657,4333 L8877,4561 Z M8331,4009 C8319,4009 8308,4004 8299,3996 C8290,3987 8286,3976 8286,3963 C8286,3950 8290,3939 8299,3930 C8308,3922 8319,3917 8331,3917 C8344,3917 8355,3922 8364,3930 C8373,3939 8378,3950 8378,3963 C8378,3976 8373,3987 8364,3995 C8355,4004 8344,4009 8331,4009 Z M8366,4561 L8295,4561 L8295,4121 L8366,4121 L8366,4561 Z M8149,4561 L8079,4561 L8079,3909 L8149,3909 L8149,4561 Z M7759,4121 L7557,4631 C7520,4722 7470,4768 7404,4768 C7386,4768 7371,4766 7359,4762 L7359,4699 C7374,4704 7388,4707 7400,4707 C7436,4707 7462,4686 7480,4643 L7515,4560 L7343,4121 L7422,4121 L7541,4459 C7542,4464 7545,4475 7550,4493 L7552,4493 C7554,4486 7557,4475 7561,4460 L7686,4121 L7759,4121 Z M7273,4561 L7202,4561 L7202,4492 L7201,4492 C7170,4545 7125,4571 7065,4571 C7021,4571 6987,4559 6962,4536 C6937,4513 6925,4482 6925,4444 C6925,4362 6974,4314 7070,4300 L7202,4282 C7202,4207 7172,4170 7112,4170 C7059,4170 7011,4188 6968,4224 L6968,4152 C7011,4124 7061,4110 7118,4110 C7221,4110 7273,4165 7273,4274 L7273,4561 Z M7202,4338 L7096,4353 C7064,4357 7039,4365 7022,4377 C7006,4389 6997,4409 6997,4439 C6997,4460 7005,4478 7020,4491 C7036,4505 7056,4512 7082,4512 C7116,4512 7145,4499 7168,4475 C7191,4450 7202,4419 7202,4382 L7202,4338 Z M6812,4561 L6741,4561 L6741,3909 L6812,3909 L6812,4561 Z M6293,4497 L6292,4497 L6292,4763 L6221,4763 L6221,4121 L6292,4121 L6292,4198 L6293,4198 C6328,4139 6379,4110 6445,4110 C6502,4110 6546,4130 6578,4169 C6610,4209 6626,4262 6626,4328 C6626,4401 6608,4460 6572,4505 C6536,4549 6487,4571 6425,4571 C6368,4571 6324,4546 6293,4497 Z M6292,4319 L6292,4381 C6292,4417 6303,4448 6327,4474 C6351,4499 6381,4512 6417,4512 C6460,4512 6493,4495 6517,4463 C6542,4430 6554,4385 6554,4326 C6554,4277 6542,4239 6520,4211 C6497,4183 6466,4170 6428,4170 C6387,4170 6354,4184 6329,4212 C6304,4241 6292,4276 6292,4319 Z"/>
  </g>
</svg>
